HIERARCHY
ROOT hip
{
  OFFSET 0 0 0
  CHANNELS 6 Xposition Yposition Zposition Zrotation Yrotation Xrotation
  JOINT abdomen
  {
    OFFSET 0 20.6881 -0.73152
    CHANNELS 3 Zrotation Xrotation Yrotation
    JOINT chest
    {
      OFFSET 0 11.7043 -0.48768
      CHANNELS 3 Zrotation Xrotation Yrotation
      JOINT neck
      {
        OFFSET 0 22.1894 -2.19456
        CHANNELS 3 Zrotation Xrotation Yrotation
        JOINT head
        {
          OFFSET -0.24384 7.07133 1.2192
          CHANNELS 3 Zrotation Xrotation Yrotation
          JOINT leftEye
          {
            OFFSET 4.14528 8.04674 8.04672
            CHANNELS 3 Zrotation Xrotation Yrotation
            End Site
            {
              OFFSET 1 0 0
            }
          }
          JOINT rightEye
          {
            OFFSET -3.6576 8.04674 8.04672
            CHANNELS 3 Zrotation Xrotation Yrotation
            End Site
            {
              OFFSET 1 0 0
            }
          }
        }
      }
      JOINT rCollar
      {
        OFFSET -2.68224 19.2634 -4.8768
        CHANNELS 3 Zrotation Xrotation Yrotation
        JOINT rShldr
        {
          OFFSET -8.77824 -1.95073 1.46304
          CHANNELS 3 Zrotation Xrotation Yrotation
          JOINT rForeArm
          {
            OFFSET -28.1742 -1.7115 0.48768
            CHANNELS 3 Zrotation Xrotation Yrotation
            JOINT rHand
            {
              OFFSET -22.5879 0.773209 7.07136
              CHANNELS 3 Zrotation Xrotation Yrotation
              JOINT rThumb1
              {
                OFFSET -1.2192 -0.487915 3.41376
                CHANNELS 3 Zrotation Xrotation Yrotation
                JOINT rThumb2
                {
                  OFFSET -3.37035 -0.52449 3.41376
                  CHANNELS 3 Zrotation Xrotation Yrotation
                  End Site
                  {
                    OFFSET -1.78271 -1.18214 1.43049
                  }
                }
              }
              JOINT rIndex1
              {
                OFFSET -7.75947 0.938293 5.60832
                CHANNELS 3 Zrotation Xrotation Yrotation
                JOINT rIndex2
                {
                  OFFSET -2.54057 -0.884171 1.56538
                  CHANNELS 3 Zrotation Xrotation Yrotation
                  End Site
                  {
                    OFFSET -1.62519 -0.234802 1.16502
                  }
                }
              }
              JOINT rMid1
              {
                OFFSET -8.24714 1.18213 3.41376
                CHANNELS 3 Zrotation Xrotation Yrotation
                JOINT rMid2
                {
                  OFFSET -3.10165 -0.590103 1.0647
                  CHANNELS 3 Zrotation Xrotation Yrotation
                  End Site
                  {
                    OFFSET -2.48547 -0.328903 0.83742
                  }
                }
              }
              JOINT rRing1
              {
                OFFSET -8.82822 0.546677 1.51678
                CHANNELS 3 Zrotation Xrotation Yrotation
                JOINT rRing2
                {
                  OFFSET -2.60934 -0.819778 -0.0198488
                  CHANNELS 3 Zrotation Xrotation Yrotation
                  End Site
                  {
                    OFFSET -2.33842 -0.294052 0.168128
                  }
                }
              }
              JOINT rPinky1
              {
                OFFSET -8.27202 -0.0477905 -0.4584
                CHANNELS 3 Zrotation Xrotation Yrotation
                JOINT rPinky2
                {
                  OFFSET -1.82734 -0.647385 -0.700984
                  CHANNELS 3 Zrotation Xrotation Yrotation
                  End Site
                  {
                    OFFSET -1.69225 -0.51767 -0.607171
                  }
                }
              }
            }
          }
        }
      }
      JOINT lCollar
      {
        OFFSET 2.68224 19.2634 -4.8768
        CHANNELS 3 Zrotation Xrotation Yrotation
        JOINT lShldr
        {
          OFFSET 8.77824 -1.95073 1.46304
          CHANNELS 3 Zrotation Xrotation Yrotation
          JOINT lForeArm
          {
            OFFSET 28.1742 -1.7115 0.48768
            CHANNELS 3 Zrotation Xrotation Yrotation
            JOINT lHand
            {
              OFFSET 22.5879 0.773209 7.07136
              CHANNELS 3 Zrotation Xrotation Yrotation
              JOINT lThumb1
              {
                OFFSET 1.2192 -0.487915 3.41376
                CHANNELS 3 Zrotation Xrotation Yrotation
                JOINT lThumb2
                {
                  OFFSET 3.37035 -0.52449 3.41376
                  CHANNELS 3 Zrotation Xrotation Yrotation
                  End Site
                  {
                    OFFSET 1.78271 -1.18214 1.43049
                  }
                }
              }
              JOINT lIndex1
              {
                OFFSET 7.75947 0.938293 5.60832
                CHANNELS 3 Zrotation Xrotation Yrotation
                JOINT lIndex2
                {
                  OFFSET 2.54057 -0.884171 1.56538
                  CHANNELS 3 Zrotation Xrotation Yrotation
                  End Site
                  {
                    OFFSET 1.62519 -0.234802 1.16502
                  }
                }
              }
              JOINT lMid1
              {
                OFFSET 8.24714 1.18213 3.41376
                CHANNELS 3 Zrotation Xrotation Yrotation
                JOINT lMid2
                {
                  OFFSET 3.10165 -0.590103 1.0647
                  CHANNELS 3 Zrotation Xrotation Yrotation
                  End Site
                  {
                    OFFSET 2.48547 -0.328903 0.83742
                  }
                }
              }
              JOINT lRing1
              {
                OFFSET 8.82822 0.546677 1.51678
                CHANNELS 3 Zrotation Xrotation Yrotation
                JOINT lRing2
                {
                  OFFSET 2.60934 -0.819778 -0.0198488
                  CHANNELS 3 Zrotation Xrotation Yrotation
                  End Site
                  {
                    OFFSET 2.33842 -0.294052 0.168128
                  }
                }
              }
              JOINT lPinky1
              {
                OFFSET 8.27202 -0.0477905 -0.4584
                CHANNELS 3 Zrotation Xrotation Yrotation
                JOINT lPinky2
                {
                  OFFSET 1.82734 -0.647385 -0.700984
                  CHANNELS 3 Zrotation Xrotation Yrotation
                  End Site
                  {
                    OFFSET 1.69225 -0.51767 -0.607171
                  }
                }
              }
            }
          }
        }
      }
    }
  }
  JOINT rButtock
  {
    OFFSET -8.77824 4.35084 1.2192
    CHANNELS 3 Zrotation Xrotation Yrotation
    JOINT rThigh
    {
      OFFSET 0 -1.70687 -2.19456
      CHANNELS 3 Zrotation Xrotation Yrotation
      JOINT rShin
      {
        OFFSET 0 -36.8199 0.73152
        CHANNELS 3 Zrotation Xrotation Yrotation
        JOINT rFoot
        {
          OFFSET 0.73152 -45.1104 -5.12064
          CHANNELS 3 Zrotation Xrotation Yrotation
          End Site
          {
            OFFSET -1.1221 -3.69964 12.103
          }
        }
      }
    }
  }
  JOINT lButtock
  {
    OFFSET 8.77824 4.35084 1.2192
    CHANNELS 3 Zrotation Xrotation Yrotation
    JOINT lThigh
    {
      OFFSET 0 -1.70687 -2.19456
      CHANNELS 3 Zrotation Xrotation Yrotation
      JOINT lShin
      {
        OFFSET 0 -36.8199 0.73152
        CHANNELS 3 Zrotation Xrotation Yrotation
        JOINT lFoot
        {
          OFFSET -0.73152 -45.1104 -5.12064
          CHANNELS 3 Zrotation Xrotation Yrotation
          End Site
          {
            OFFSET 1.1221 -3.69964 12.103
          }
        }
      }
    }
  }
}
MOTION
Frames:	4
Frame Time:	0.03333
0.01622568815946579 -12.233027070760727 -0.016031507402658463 -4.859180450439453 2.826817274093628 5.421348571777344 -2.509002685546875 14.274890899658203 3.763742685317993 2.8265292644500732 -9.398917198181152 1.341418981552124 -5.316795349121094 15.039819717407227 -3.84885835647583 9.030370712280273 -24.66351890563965 -5.4444122314453125 -0.1092718243598938 0.04259057715535164 -0.07022556662559509 0.02909170836210251 0.02410498820245266 -0.0664738193154335 0.011892631649971008 0.04036162793636322 -0.0024916213005781174 47.388275146484375 37.70526123046875 17.702266693115234 -27.49629020690918 -27.863481521606445 63.559181213378906 -0.12312453240156174 -9.941757202148438 -1.4304834604263306 -0.0631931945681572 -0.019711514934897423 -0.006998694036155939 -0.03827672451734543 -0.09402522444725037 -0.0971016213297844 -0.0011226314818486571 0.061585936695337296 0.08649875223636627 7.7520833015441895 5.397599220275879 0.46946850419044495 -0.04263351112604141 0.06746485829353333 -0.11155364662408829 2.890817642211914 0.9885586500167847 0.11033081263303757 -0.02852986939251423 -0.16592824459075928 -0.1406761109828949 10.255121231079102 0.734610378742218 0.0329267717897892 -0.10253588855266571 0.0671771764755249 0.10251125693321228 2.192000150680542 -0.7036140561103821 -0.22277067601680756 -0.03494437411427498 0.06439413875341415 -0.032605402171611786 -53.46520233154297 40.836143493652344 -28.771364212036133 26.90179443359375 -25.81597900390625 -60.33256149291992 0.2593382000923157 -13.297212600708008 1.9915647506713867 0.04782865568995476 -0.043209243565797806 0.10663309693336487 0.009597714990377426 0.10680335760116577 0.010042587295174599 0.1566910743713379 -0.025337930768728256 -0.07289449870586395 -7.737125396728516 5.503921031951904 -0.42898938059806824 -0.040740735828876495 -0.02725624106824398 0.0032416062895208597 -2.86002254486084 0.9545716047286987 -0.04250126704573631 -0.0921519324183464 -0.06044134125113487 0.04109896346926689 -10.333714485168457 0.701473593711853 -0.028438061475753784 0.029190069064497948 -0.050687942653894424 -0.10439412295818329 -2.2401232719421387 -0.7944921851158142 0.23691289126873016 0.09503117203712463 0.0505300872027874 0.04958236962556839 -23.08302116394043 -39.85481262207031 -19.180923461914062 -1.332100749015808 64.35701751708984 2.391193389892578 -3.564152479171753 -10.477744102478027 -10.003005981445312 0.1251733899116516 -0.039887815713882446 -0.014605463482439518 28.170188903808594 -38.98434066772461 21.55841827392578 1.7151892185211182 65.29302215576172 -2.8375906944274902 4.422418117523193 -11.198375701904297 14.211067199707031
0.03267806023359299 -12.186718732118607 -0.036685820668935776 -4.608574390411377 4.507352828979492 5.7778000831604 -2.5337469577789307 14.209712028503418 3.766685962677002 2.855917453765869 -9.396857261657715 1.3009101152420044 -5.334798812866211 15.08896255493164 -3.9007315635681152 9.102141380310059 -24.752511978149414 -5.518282413482666 -0.11127324402332306 0.02570357359945774 -0.08118388056755066 0.0222222451120615 0.014067749492824078 -0.05505950376391411 0.041450753808021545 0.03209545835852623 -0.0032359829638153315 47.3698844909668 37.64012908935547 17.912813186645508 -27.545413970947266 -27.99470329284668 63.764530181884766 -0.08961308747529984 -9.618691444396973 -1.377833604812622 -0.07292819023132324 -0.019623761996626854 -0.00788581557571888 -0.04981435090303421 -0.05219987779855728 -0.049860309809446335 -0.0017117270035669208 0.062264349311590195 0.07199345529079437 7.737523078918457 5.436324596405029 0.4295242726802826 -0.05341295525431633 0.0563507042825222 -0.0806928426027298 2.8595218658447266 0.9402545690536499 0.09069798141717911 -0.028393607586622238 -0.1606632024049759 -0.1501368135213852 10.247586250305176 0.7664008140563965 0.006399050354957581 -0.06069565936923027 0.07891964167356491 0.11548000574111938 2.202305793762207 -0.7082833647727966 -0.23659208416938782 0.028390534222126007 0.07876177877187729 -0.007775341160595417 -53.093326568603516 41.148929595947266 -29.288652420043945 26.904117584228516 -25.94228744506836 -60.586944580078125 0.2583581209182739 -13.628119468688965 1.9912201166152954 0.02235966920852661 -0.04086121916770935 0.08821537345647812 0.03300339728593826 0.09776841849088669 0.002156119095161557 0.12773193418979645 -0.042375676333904266 -0.06778329610824585 -7.7747297286987305 5.491786956787109 -0.4189297556877136 -0.06000922992825508 -0.03147907555103302 -0.04289863631129265 -2.8567709922790527 0.9534450769424438 0.017961062490940094 -0.07602132856845856 -0.06495867669582367 0.03476668894290924 -10.309560775756836 0.7251039743423462 -0.03584327548742294 0.03838318958878517 -0.035916659981012344 -0.07192350924015045 -2.2499890327453613 -0.7620652914047241 0.23374435305595398 0.06915045529603958 0.06871630996465683 0.05392267554998398 -23.157855987548828 -40.29043197631836 -19.337305068969727 -1.4301295280456543 64.46403503417969 2.508348226547241 -3.5423388481140137 -10.441447257995605 -9.780272483825684 0.14796428382396698 -0.03405913710594177 -0.02306097373366356 27.889575958251953 -38.83143997192383 21.33220672607422 1.7364763021469116 65.44873046875 -2.8552234172821045 4.497818470001221 -11.487948417663574 14.424172401428223
0.07167141884565353 -11.976762115955353 0.10820897296071053 5.851149559020996 21.254621505737305 3.1917779445648193 -9.63438606262207 16.465238571166992 2.631296157836914 4.52142858505249 -8.899362564086914 1.0558736324310303 -7.771166801452637 16.30414390563965 -9.192818641662598 6.956677436828613 -32.192508697509766 -16.273597717285156 0.0009077783324755728 0.20987026393413544 -0.006581074558198452 0.0298954788595438 -0.022251134738326073 -0.13037517666816711 -0.08366996049880981 0.01008455827832222 0.0891023650765419 19.587289810180664 -9.925897598266602 63.64891815185547 -16.010513305664062 -8.869921684265137 29.663223266601562 -0.006742244586348534 7.66311502456665 0.9431505799293518 0.025455817580223083 -0.06311406940221786 -0.06128650903701782 -0.07931355386972427 -0.12131944298744202 -0.14300324022769928 0.06919405609369278 0.10771186649799347 0.1409398466348648 7.614029884338379 5.367647171020508 0.5837299823760986 -0.15182329714298248 0.026153666898608208 -0.05069694668054581 2.9226768016815186 1.0872284173965454 0.15738464891910553 0.07984337955713272 -0.1503642201423645 -0.25783270597457886 10.213807106018066 0.8576785922050476 0.08602159470319748 -0.1364593207836151 0.206345796585083 -0.029917944222688675 2.1985392570495605 -0.6783583760261536 -0.17728093266487122 -0.023669103160500526 0.06313135474920273 -0.18250642716884613 -104.75108337402344 61.56423568725586 38.476806640625 27.86773109436035 -40.142757415771484 -83.84126281738281 8.40665054321289 -60.30763626098633 14.098316192626953 0.1995643824338913 0.1083894670009613 0.29705482721328735 -0.14387960731983185 0.33178552985191345 0.07742875069379807 -0.03910961002111435 0.16937993466854095 0.0712776854634285 -7.633612632751465 5.523470878601074 -0.4138667583465576 -0.2550329864025116 -0.032663747668266296 -0.019893700256943703 -2.7473137378692627 1.0095363855361938 -0.19055671989917755 -0.2877686619758606 -0.029576478525996208 -0.058596156537532806 -10.298042297363281 0.7492514848709106 -0.09010584652423859 -0.056974854320287704 -0.27724263072013855 -0.03722575679421425 -2.1774606704711914 -0.9661616683006287 0.4183133542537689 0.1433023065328598 0.17044183611869812 -0.11953453719615936 -15.84917163848877 -50.171356201171875 8.591397285461426 -0.2742125391960144 30.036964416503906 0.2605171799659729 2.16331148147583 9.757084846496582 -4.2115159034729 0.3572602868080139 -0.1909881979227066 0.06399185955524445 4.7635884284973145 -13.927940368652344 -6.43945837020874 1.4352376461029053 64.50479125976562 -3.462371826171875 8.667125701904297 -13.486675262451172 31.075347900390625
0.12473966926336288 -11.284083873033524 0.39126500487327576 3.4643585681915283 14.658136367797852 1.566541075706482 -10.253335952758789 18.021011352539062 1.124880313873291 6.714474678039551 -8.747276306152344 0.8157007098197937 -6.836366653442383 17.12523078918457 -8.032035827636719 10.610762596130371 -34.76068878173828 -12.757004737854004 -0.08272698521614075 0.09631608426570892 -0.1913720816373825 0.174828439950943 -0.09704779088497162 -0.4187251925468445 -0.13910068571567535 -0.23749268054962158 -0.07351160049438477 19.02254295349121 -5.646505355834961 64.02536010742188 -17.58838653564453 -10.517279624938965 33.211002349853516 -0.08458727598190308 4.393492221832275 0.4024078845977783 0.3424011468887329 0.02201574109494686 0.08863726258277893 0.07722469419240952 -0.15761521458625793 -0.1897072196006775 -0.3986770212650299 0.2307804673910141 0.35655665397644043 7.610987186431885 5.345739841461182 0.487674355506897 -0.33153820037841797 -0.10334668308496475 -0.13378730416297913 3.2249739170074463 1.210770606994629 0.20467489957809448 0.3048344552516937 -0.15011069178581238 -0.25272175669670105 9.943150520324707 0.5179640054702759 0.06621524691581726 -0.08528748154640198 0.24884244799613953 -0.11432942003011703 2.414679765701294 -0.4666544497013092 0.02690977044403553 -0.23099872469902039 0.059276580810546875 0.09253896027803421 -97.74259185791016 59.4227294921875 29.242422103881836 27.841472625732422 -39.0312385559082 -82.49614715576172 6.2843217849731445 -55.76704025268555 11.83103084564209 0.00044466706458479166 -0.0022575645707547665 0.28283044695854187 -0.23102585971355438 0.04412839934229851 0.12248384207487106 -0.04670165106654167 0.15673740208148956 -0.019355619326233864 -7.704717636108398 5.770646572113037 -0.33704957365989685 -0.6611592173576355 -0.032874397933483124 0.025470677763223648 -2.9468109607696533 0.9654779434204102 -0.22518356144428253 -0.028366154059767723 0.10625790059566498 0.16045866906642914 -10.382895469665527 0.72797030210495 -0.019229063764214516 0.07447740435600281 -0.32129016518592834 -0.12490915507078171 -2.2183194160461426 -1.03057062625885 0.23219212889671326 0.2700861692428589 -0.0776345506310463 -0.046183496713638306 -15.86327075958252 -56.93818283081055 6.783453464508057 -0.4634731411933899 33.4569206237793 0.3666720688343048 0.9635067582130432 0.4529678225517273 -9.684187889099121 0.19766977429389954 -0.13284802436828613 0.004335073754191399 4.973819255828857 -15.523270606994629 -3.338672161102295 0.450020968914032 65.4590835571289 -2.6144611835479736 8.96494197845459 -14.242724418640137 31.4295654296875
